<svg width="55" height="56" viewBox="0 0 55 56" fill="none" xmlns="http://www.w3.org/2000/svg">
<path d="M27.5001 51.3332C18.227 51.3387 9.86459 45.6536 6.31519 36.9309C2.76579 28.2082 4.72907 18.1673 11.2889 11.4938C17.0806 5.59676 25.5222 3.29371 33.4339 5.45218C41.3455 7.61064 47.5252 13.9027 49.6451 21.9582C51.765 30.0137 49.5031 38.6088 43.7114 44.5058C39.4201 48.8948 33.5826 51.3533 27.5001 51.3332ZM9.16679 28.4011C9.27522 38.6707 17.511 46.9221 27.5976 46.8671C37.6842 46.8117 45.8324 38.4706 45.8324 28.2005C45.8324 17.9303 37.6842 9.58926 27.5976 9.53378C17.511 9.47886 9.27522 17.7302 9.16679 27.9998V28.4011ZM21.5624 37.3331L18.3335 34.0431L24.2689 27.9998L18.3335 21.9565L21.5647 18.6665L27.5001 24.7098L33.4355 18.6665L36.6668 21.9565L30.7314 27.9998L36.6668 34.0431L33.4378 37.3331L27.5001 31.2898L21.5647 37.3331H21.5624Z" fill="#FF3B30"/>
</svg>
