<svg width="56" height="56" viewBox="0 0 56 56" fill="none" xmlns="http://www.w3.org/2000/svg">
<path d="M28.0001 51.3332C15.1193 51.3191 4.68089 40.8807 4.66675 27.9999V27.5332C4.92325 14.7105 15.4808 4.49844 28.305 4.6686C41.1292 4.83876 51.412 15.3273 51.3282 28.1523C51.2444 40.9774 40.8254 51.3306 28.0001 51.3332ZM28.0001 9.33321C17.6908 9.33321 9.33341 17.6906 9.33341 27.9999C9.33341 38.3092 17.6908 46.6665 28.0001 46.6665C38.3094 46.6665 46.6667 38.3092 46.6667 27.9999C46.6552 17.6954 38.3046 9.34479 28.0001 9.33321ZM28.0001 39.6665L24.7101 36.3765L30.7301 30.3332H16.3334V25.6665H30.7301L24.7101 19.6232L28.0001 16.3332L39.6667 27.9999L28.0001 39.6665Z" fill="white"/>
</svg>
