<svg width="32" height="32" viewBox="0 0 32 32" fill="none" xmlns="http://www.w3.org/2000/svg">
<path d="M15.3333 29C7.79996 29 1.66663 22.8666 1.66663 15.3333C1.66663 7.79996 7.79996 1.66663 15.3333 1.66663C22.8666 1.66663 29 7.79996 29 15.3333C29 22.8666 22.8666 29 15.3333 29ZM15.3333 3.66663C8.89329 3.66663 3.66663 8.90663 3.66663 15.3333C3.66663 21.76 8.89329 27 15.3333 27C21.7733 27 27 21.76 27 15.3333C27 8.90663 21.7733 3.66663 15.3333 3.66663Z" fill="#292D32"/>
<path d="M29.3333 30.3333C29.0799 30.3333 28.8266 30.2399 28.6266 30.0399L25.9599 27.3733C25.5733 26.9866 25.5733 26.3466 25.9599 25.9599C26.3466 25.5733 26.9866 25.5733 27.3733 25.9599L30.0399 28.6266C30.4266 29.0133 30.4266 29.6533 30.0399 30.0399C29.8399 30.2399 29.5866 30.3333 29.3333 30.3333Z" fill="#292D32"/>
</svg>
